<svg xmlns="http://www.w3.org/2000/svg" xmlns:xlink="http://www.w3.org/1999/xlink" width="2000" zoomAndPan="magnify" viewBox="0 0 1500 427.499982" height="570" preserveAspectRatio="xMidYMid meet" version="1.0"><defs><g/><clipPath id="c5b7352ddc"><path d="M 146.828125 44.09375 L 251.59375 44.09375 L 251.59375 148.859375 L 146.828125 148.859375 Z M 146.828125 44.09375 " clip-rule="nonzero"/></clipPath><clipPath id="ea494088a9"><path d="M 199.210938 44.09375 C 170.277344 44.09375 146.828125 67.546875 146.828125 96.476562 C 146.828125 125.40625 170.277344 148.859375 199.210938 148.859375 C 228.140625 148.859375 251.59375 125.40625 251.59375 96.476562 C 251.59375 67.546875 228.140625 44.09375 199.210938 44.09375 Z M 199.210938 44.09375 " clip-rule="nonzero"/></clipPath><clipPath id="8212cde458"><path d="M 0.828125 0.09375 L 105.59375 0.09375 L 105.59375 104.859375 L 0.828125 104.859375 Z M 0.828125 0.09375 " clip-rule="nonzero"/></clipPath><clipPath id="db6608ff3d"><path d="M 53.210938 0.09375 C 24.277344 0.09375 0.828125 23.546875 0.828125 52.476562 C 0.828125 81.40625 24.277344 104.859375 53.210938 104.859375 C 82.140625 104.859375 105.59375 81.40625 105.59375 52.476562 C 105.59375 23.546875 82.140625 0.09375 53.210938 0.09375 Z M 53.210938 0.09375 " clip-rule="nonzero"/></clipPath><clipPath id="dc501726f5"><rect x="0" width="106" y="0" height="105"/></clipPath><clipPath id="2b0407f655"><path d="M 271.796875 44.09375 L 376.5625 44.09375 L 376.5625 148.859375 L 271.796875 148.859375 Z M 271.796875 44.09375 " clip-rule="nonzero"/></clipPath><clipPath id="0d1e666512"><path d="M 324.179688 44.09375 C 295.246094 44.09375 271.796875 67.546875 271.796875 96.476562 C 271.796875 125.40625 295.246094 148.859375 324.179688 148.859375 C 353.109375 148.859375 376.5625 125.40625 376.5625 96.476562 C 376.5625 67.546875 353.109375 44.09375 324.179688 44.09375 Z M 324.179688 44.09375 " clip-rule="nonzero"/></clipPath><clipPath id="c09981efd7"><path d="M 0.796875 0.09375 L 105.5625 0.09375 L 105.5625 104.859375 L 0.796875 104.859375 Z M 0.796875 0.09375 " clip-rule="nonzero"/></clipPath><clipPath id="4c132583f9"><path d="M 53.179688 0.09375 C 24.246094 0.09375 0.796875 23.546875 0.796875 52.476562 C 0.796875 81.40625 24.246094 104.859375 53.179688 104.859375 C 82.109375 104.859375 105.5625 81.40625 105.5625 52.476562 C 105.5625 23.546875 82.109375 0.09375 53.179688 0.09375 Z M 53.179688 0.09375 " clip-rule="nonzero"/></clipPath><clipPath id="960c2f9e88"><rect x="0" width="106" y="0" height="105"/></clipPath><clipPath id="273b46a578"><path d="M 396.761719 44.09375 L 501.53125 44.09375 L 501.53125 148.859375 L 396.761719 148.859375 Z M 396.761719 44.09375 " clip-rule="nonzero"/></clipPath><clipPath id="e39359da24"><path d="M 449.148438 44.09375 C 420.214844 44.09375 396.761719 67.546875 396.761719 96.476562 C 396.761719 125.40625 420.214844 148.859375 449.148438 148.859375 C 478.078125 148.859375 501.53125 125.40625 501.53125 96.476562 C 501.53125 67.546875 478.078125 44.09375 449.148438 44.09375 Z M 449.148438 44.09375 " clip-rule="nonzero"/></clipPath><clipPath id="81d2bce58c"><path d="M 0.761719 0.09375 L 105.53125 0.09375 L 105.53125 104.859375 L 0.761719 104.859375 Z M 0.761719 0.09375 " clip-rule="nonzero"/></clipPath><clipPath id="bdb1729d04"><path d="M 53.148438 0.09375 C 24.214844 0.09375 0.761719 23.546875 0.761719 52.476562 C 0.761719 81.40625 24.214844 104.859375 53.148438 104.859375 C 82.078125 104.859375 105.53125 81.40625 105.53125 52.476562 C 105.53125 23.546875 82.078125 0.09375 53.148438 0.09375 Z M 53.148438 0.09375 " clip-rule="nonzero"/></clipPath><clipPath id="27ff3f2816"><rect x="0" width="106" y="0" height="105"/></clipPath><clipPath id="e3d315cbc0"><path d="M 146.828125 165.167969 L 251.59375 165.167969 L 251.59375 269.9375 L 146.828125 269.9375 Z M 146.828125 165.167969 " clip-rule="nonzero"/></clipPath><clipPath id="897bb846f8"><path d="M 199.210938 165.167969 C 170.277344 165.167969 146.828125 188.621094 146.828125 217.554688 C 146.828125 246.484375 170.277344 269.9375 199.210938 269.9375 C 228.140625 269.9375 251.59375 246.484375 251.59375 217.554688 C 251.59375 188.621094 228.140625 165.167969 199.210938 165.167969 Z M 199.210938 165.167969 " clip-rule="nonzero"/></clipPath><clipPath id="787730ce6c"><path d="M 0.828125 0.167969 L 105.59375 0.167969 L 105.59375 104.9375 L 0.828125 104.9375 Z M 0.828125 0.167969 " clip-rule="nonzero"/></clipPath><clipPath id="146cb18ce3"><path d="M 53.210938 0.167969 C 24.277344 0.167969 0.828125 23.621094 0.828125 52.554688 C 0.828125 81.484375 24.277344 104.9375 53.210938 104.9375 C 82.140625 104.9375 105.59375 81.484375 105.59375 52.554688 C 105.59375 23.621094 82.140625 0.167969 53.210938 0.167969 Z M 53.210938 0.167969 " clip-rule="nonzero"/></clipPath><clipPath id="5b5721b4ec"><rect x="0" width="106" y="0" height="105"/></clipPath><clipPath id="ae0d2d0dd7"><path d="M 271.796875 165.167969 L 376.5625 165.167969 L 376.5625 269.9375 L 271.796875 269.9375 Z M 271.796875 165.167969 " clip-rule="nonzero"/></clipPath><clipPath id="84f594adaa"><path d="M 324.179688 165.167969 C 295.246094 165.167969 271.796875 188.621094 271.796875 217.554688 C 271.796875 246.484375 295.246094 269.9375 324.179688 269.9375 C 353.109375 269.9375 376.5625 246.484375 376.5625 217.554688 C 376.5625 188.621094 353.109375 165.167969 324.179688 165.167969 Z M 324.179688 165.167969 " clip-rule="nonzero"/></clipPath><clipPath id="62f99e33c1"><path d="M 0.796875 0.167969 L 105.5625 0.167969 L 105.5625 104.9375 L 0.796875 104.9375 Z M 0.796875 0.167969 " clip-rule="nonzero"/></clipPath><clipPath id="1175dd18b7"><path d="M 53.179688 0.167969 C 24.246094 0.167969 0.796875 23.621094 0.796875 52.554688 C 0.796875 81.484375 24.246094 104.9375 53.179688 104.9375 C 82.109375 104.9375 105.5625 81.484375 105.5625 52.554688 C 105.5625 23.621094 82.109375 0.167969 53.179688 0.167969 Z M 53.179688 0.167969 " clip-rule="nonzero"/></clipPath><clipPath id="a389aa857c"><rect x="0" width="106" y="0" height="105"/></clipPath><clipPath id="6f85409b4d"><path d="M 396.761719 165.167969 L 501.53125 165.167969 L 501.53125 269.9375 L 396.761719 269.9375 Z M 396.761719 165.167969 " clip-rule="nonzero"/></clipPath><clipPath id="9d8bacb508"><path d="M 449.148438 165.167969 C 420.214844 165.167969 396.761719 188.621094 396.761719 217.554688 C 396.761719 246.484375 420.214844 269.9375 449.148438 269.9375 C 478.078125 269.9375 501.53125 246.484375 501.53125 217.554688 C 501.53125 188.621094 478.078125 165.167969 449.148438 165.167969 Z M 449.148438 165.167969 " clip-rule="nonzero"/></clipPath><clipPath id="8c63a0db83"><path d="M 0.761719 0.167969 L 105.53125 0.167969 L 105.53125 104.9375 L 0.761719 104.9375 Z M 0.761719 0.167969 " clip-rule="nonzero"/></clipPath><clipPath id="7567d15dc6"><path d="M 53.148438 0.167969 C 24.214844 0.167969 0.761719 23.621094 0.761719 52.554688 C 0.761719 81.484375 24.214844 104.9375 53.148438 104.9375 C 82.078125 104.9375 105.53125 81.484375 105.53125 52.554688 C 105.53125 23.621094 82.078125 0.167969 53.148438 0.167969 Z M 53.148438 0.167969 " clip-rule="nonzero"/></clipPath><clipPath id="fc8dd8f2a2"><rect x="0" width="106" y="0" height="105"/></clipPath><clipPath id="bdcb167e47"><path d="M 146.828125 286.246094 L 251.59375 286.246094 L 251.59375 391.011719 L 146.828125 391.011719 Z M 146.828125 286.246094 " clip-rule="nonzero"/></clipPath><clipPath id="71c32c325a"><path d="M 199.210938 286.246094 C 170.277344 286.246094 146.828125 309.699219 146.828125 338.628906 C 146.828125 367.558594 170.277344 391.011719 199.210938 391.011719 C 228.140625 391.011719 251.59375 367.558594 251.59375 338.628906 C 251.59375 309.699219 228.140625 286.246094 199.210938 286.246094 Z M 199.210938 286.246094 " clip-rule="nonzero"/></clipPath><clipPath id="aa2a8f1891"><path d="M 0.828125 0.246094 L 105.59375 0.246094 L 105.59375 105.011719 L 0.828125 105.011719 Z M 0.828125 0.246094 " clip-rule="nonzero"/></clipPath><clipPath id="fa484cdabd"><path d="M 53.210938 0.246094 C 24.277344 0.246094 0.828125 23.699219 0.828125 52.628906 C 0.828125 81.558594 24.277344 105.011719 53.210938 105.011719 C 82.140625 105.011719 105.59375 81.558594 105.59375 52.628906 C 105.59375 23.699219 82.140625 0.246094 53.210938 0.246094 Z M 53.210938 0.246094 " clip-rule="nonzero"/></clipPath><clipPath id="479984ad4b"><rect x="0" width="106" y="0" height="106"/></clipPath><clipPath id="7c98fcefec"><path d="M 271.796875 286.246094 L 376.5625 286.246094 L 376.5625 391.011719 L 271.796875 391.011719 Z M 271.796875 286.246094 " clip-rule="nonzero"/></clipPath><clipPath id="9fe977cabd"><path d="M 324.179688 286.246094 C 295.246094 286.246094 271.796875 309.699219 271.796875 338.628906 C 271.796875 367.558594 295.246094 391.011719 324.179688 391.011719 C 353.109375 391.011719 376.5625 367.558594 376.5625 338.628906 C 376.5625 309.699219 353.109375 286.246094 324.179688 286.246094 Z M 324.179688 286.246094 " clip-rule="nonzero"/></clipPath><clipPath id="5d63ac45f6"><path d="M 0.796875 0.246094 L 105.5625 0.246094 L 105.5625 105.011719 L 0.796875 105.011719 Z M 0.796875 0.246094 " clip-rule="nonzero"/></clipPath><clipPath id="9a33eccc5d"><path d="M 53.179688 0.246094 C 24.246094 0.246094 0.796875 23.699219 0.796875 52.628906 C 0.796875 81.558594 24.246094 105.011719 53.179688 105.011719 C 82.109375 105.011719 105.5625 81.558594 105.5625 52.628906 C 105.5625 23.699219 82.109375 0.246094 53.179688 0.246094 Z M 53.179688 0.246094 " clip-rule="nonzero"/></clipPath><clipPath id="06387f14d5"><rect x="0" width="106" y="0" height="106"/></clipPath><clipPath id="26415f3bd4"><path d="M 396.761719 286.246094 L 501.53125 286.246094 L 501.53125 391.011719 L 396.761719 391.011719 Z M 396.761719 286.246094 " clip-rule="nonzero"/></clipPath><clipPath id="8aa974041e"><path d="M 449.148438 286.246094 C 420.214844 286.246094 396.761719 309.699219 396.761719 338.628906 C 396.761719 367.558594 420.214844 391.011719 449.148438 391.011719 C 478.078125 391.011719 501.53125 367.558594 501.53125 338.628906 C 501.53125 309.699219 478.078125 286.246094 449.148438 286.246094 Z M 449.148438 286.246094 " clip-rule="nonzero"/></clipPath><clipPath id="849cbfe8fd"><path d="M 0.761719 0.246094 L 105.53125 0.246094 L 105.53125 105.011719 L 0.761719 105.011719 Z M 0.761719 0.246094 " clip-rule="nonzero"/></clipPath><clipPath id="c5b4e87525"><path d="M 53.148438 0.246094 C 24.214844 0.246094 0.761719 23.699219 0.761719 52.628906 C 0.761719 81.558594 24.214844 105.011719 53.148438 105.011719 C 82.078125 105.011719 105.53125 81.558594 105.53125 52.628906 C 105.53125 23.699219 82.078125 0.246094 53.148438 0.246094 Z M 53.148438 0.246094 " clip-rule="nonzero"/></clipPath><clipPath id="b64a26b5d6"><rect x="0" width="106" y="0" height="106"/></clipPath></defs><g clip-path="url(#c5b7352ddc)"><g clip-path="url(#ea494088a9)"><g transform="matrix(1, 0, 0, 1, 146, 44)"><g clip-path="url(#dc501726f5)"><g clip-path="url(#8212cde458)"><g clip-path="url(#db6608ff3d)"><path fill="#edf3f8" d="M 0.828125 0.09375 L 105.59375 0.09375 L 105.59375 104.859375 L 0.828125 104.859375 Z M 0.828125 0.09375 " fill-opacity="1" fill-rule="nonzero"/></g></g></g></g></g></g><g clip-path="url(#2b0407f655)"><g clip-path="url(#0d1e666512)"><g transform="matrix(1, 0, 0, 1, 271, 44)"><g clip-path="url(#960c2f9e88)"><g clip-path="url(#c09981efd7)"><g clip-path="url(#4c132583f9)"><path fill="#bed6ee" d="M 0.796875 0.09375 L 105.5625 0.09375 L 105.5625 104.859375 L 0.796875 104.859375 Z M 0.796875 0.09375 " fill-opacity="1" fill-rule="nonzero"/></g></g></g></g></g></g><g clip-path="url(#273b46a578)"><g clip-path="url(#e39359da24)"><g transform="matrix(1, 0, 0, 1, 396, 44)"><g clip-path="url(#27ff3f2816)"><g clip-path="url(#81d2bce58c)"><g clip-path="url(#bdb1729d04)"><path fill="#7eabdd" d="M 0.761719 0.09375 L 105.53125 0.09375 L 105.53125 104.859375 L 0.761719 104.859375 Z M 0.761719 0.09375 " fill-opacity="1" fill-rule="nonzero"/></g></g></g></g></g></g><g clip-path="url(#e3d315cbc0)"><g clip-path="url(#897bb846f8)"><g transform="matrix(1, 0, 0, 1, 146, 165)"><g clip-path="url(#5b5721b4ec)"><g clip-path="url(#787730ce6c)"><g clip-path="url(#146cb18ce3)"><path fill="#c9daec" d="M 0.828125 0.167969 L 105.59375 0.167969 L 105.59375 104.9375 L 0.828125 104.9375 Z M 0.828125 0.167969 " fill-opacity="1" fill-rule="nonzero"/></g></g></g></g></g></g><g clip-path="url(#ae0d2d0dd7)"><g clip-path="url(#84f594adaa)"><g transform="matrix(1, 0, 0, 1, 271, 165)"><g clip-path="url(#a389aa857c)"><g clip-path="url(#62f99e33c1)"><g clip-path="url(#1175dd18b7)"><path fill="#71a1d6" d="M 0.796875 0.167969 L 105.5625 0.167969 L 105.5625 104.9375 L 0.796875 104.9375 Z M 0.796875 0.167969 " fill-opacity="1" fill-rule="nonzero"/></g></g></g></g></g></g><g clip-path="url(#6f85409b4d)"><g clip-path="url(#9d8bacb508)"><g transform="matrix(1, 0, 0, 1, 396, 165)"><g clip-path="url(#fc8dd8f2a2)"><g clip-path="url(#8c63a0db83)"><g clip-path="url(#7567d15dc6)"><path fill="#3f81c4" d="M 0.761719 0.167969 L 105.53125 0.167969 L 105.53125 104.9375 L 0.761719 104.9375 Z M 0.761719 0.167969 " fill-opacity="1" fill-rule="nonzero"/></g></g></g></g></g></g><g clip-path="url(#bdcb167e47)"><g clip-path="url(#71c32c325a)"><g transform="matrix(1, 0, 0, 1, 146, 286)"><g clip-path="url(#479984ad4b)"><g clip-path="url(#aa2a8f1891)"><g clip-path="url(#fa484cdabd)"><path fill="#a3c0e0" d="M 0.828125 0.246094 L 105.59375 0.246094 L 105.59375 105.011719 L 0.828125 105.011719 Z M 0.828125 0.246094 " fill-opacity="1" fill-rule="nonzero"/></g></g></g></g></g></g><g clip-path="url(#7c98fcefec)"><g clip-path="url(#9fe977cabd)"><g transform="matrix(1, 0, 0, 1, 271, 286)"><g clip-path="url(#06387f14d5)"><g clip-path="url(#5d63ac45f6)"><g clip-path="url(#9a33eccc5d)"><path fill="#3f83c8" d="M 0.796875 0.246094 L 105.5625 0.246094 L 105.5625 105.011719 L 0.796875 105.011719 Z M 0.796875 0.246094 " fill-opacity="1" fill-rule="nonzero"/></g></g></g></g></g></g><g clip-path="url(#26415f3bd4)"><g clip-path="url(#8aa974041e)"><g transform="matrix(1, 0, 0, 1, 396, 286)"><g clip-path="url(#b64a26b5d6)"><g clip-path="url(#849cbfe8fd)"><g clip-path="url(#c5b4e87525)"><path fill="#135dae" d="M 0.761719 0.246094 L 105.53125 0.246094 L 105.53125 105.011719 L 0.761719 105.011719 Z M 0.761719 0.246094 " fill-opacity="1" fill-rule="nonzero"/></g></g></g></g></g></g><g fill="#041c30" fill-opacity="1"><g transform="translate(533.895836, 115.404177)"><g><path d="M 34.0625 -63.421875 C 42.15625 -63.421875 48.492188 -61.484375 53.078125 -57.609375 C 57.671875 -53.742188 59.96875 -48.429688 59.96875 -41.671875 C 59.96875 -34.910156 57.671875 -29.609375 53.078125 -25.765625 C 48.492188 -21.929688 42.15625 -20.015625 34.0625 -20.015625 L 17.03125 -20.015625 L 17.03125 0 L 10.328125 0 L 10.328125 -63.421875 Z M 33.875 -25.90625 C 40.15625 -25.90625 44.957031 -27.28125 48.28125 -30.03125 C 51.601562 -32.78125 53.265625 -36.660156 53.265625 -41.671875 C 53.265625 -46.804688 51.601562 -50.75 48.28125 -53.5 C 44.957031 -56.25 40.15625 -57.625 33.875 -57.625 L 17.03125 -57.625 L 17.03125 -25.90625 Z M 33.875 -25.90625 "/></g></g></g><g fill="#041c30" fill-opacity="1"><g transform="translate(594.859555, 115.404177)"><g><path d="M 50.09375 -16.9375 L 14.765625 -16.9375 L 7.15625 0 L 0.1875 0 L 29.171875 -63.421875 L 35.78125 -63.421875 L 64.78125 0 L 57.703125 0 Z M 47.65625 -22.375 L 32.4375 -56.4375 L 17.21875 -22.375 Z M 47.65625 -22.375 "/></g></g></g><g fill="#041c30" fill-opacity="1"><g transform="translate(659.809315, 115.404177)"><g><path d="M 53.625 0 L 39.140625 -20.390625 C 37.503906 -20.203125 35.8125 -20.109375 34.0625 -20.109375 L 17.03125 -20.109375 L 17.03125 0 L 10.328125 0 L 10.328125 -63.421875 L 34.0625 -63.421875 C 42.15625 -63.421875 48.492188 -61.484375 53.078125 -57.609375 C 57.671875 -53.742188 59.96875 -48.429688 59.96875 -41.671875 C 59.96875 -36.722656 58.710938 -32.539062 56.203125 -29.125 C 53.703125 -25.707031 50.128906 -23.25 45.484375 -21.75 L 60.96875 0 Z M 33.875 -25.8125 C 40.15625 -25.8125 44.957031 -27.203125 48.28125 -29.984375 C 51.601562 -32.765625 53.265625 -36.660156 53.265625 -41.671875 C 53.265625 -46.804688 51.601562 -50.75 48.28125 -53.5 C 44.957031 -56.25 40.15625 -57.625 33.875 -57.625 L 17.03125 -57.625 L 17.03125 -25.8125 Z M 33.875 -25.8125 "/></g></g></g><g fill="#041c30" fill-opacity="1"><g transform="translate(725.302583, 115.404177)"><g><path d="M 55.171875 -5.796875 L 55.171875 0 L 10.328125 0 L 10.328125 -63.421875 L 53.8125 -63.421875 L 53.8125 -57.625 L 17.03125 -57.625 L 17.03125 -35.0625 L 49.828125 -35.0625 L 49.828125 -29.359375 L 17.03125 -29.359375 L 17.03125 -5.796875 Z M 55.171875 -5.796875 "/></g></g></g><g fill="#041c30" fill-opacity="1"><g transform="translate(785.904245, 115.404177)"><g><path d="M 63.328125 -63.421875 L 63.328125 0 L 57.796875 0 L 17.03125 -51.453125 L 17.03125 0 L 10.328125 0 L 10.328125 -63.421875 L 15.859375 -63.421875 L 56.71875 -11.953125 L 56.71875 -63.421875 Z M 63.328125 -63.421875 "/></g></g></g><g fill="#041c30" fill-opacity="1"><g transform="translate(859.55019, 115.404177)"><g><path d="M 22.65625 -57.625 L 0.359375 -57.625 L 0.359375 -63.421875 L 51.640625 -63.421875 L 51.640625 -57.625 L 29.359375 -57.625 L 29.359375 0 L 22.65625 0 Z M 22.65625 -57.625 "/></g></g></g><g fill="#041c30" fill-opacity="1"><g transform="translate(911.546233, 115.404177)"><g><path d="M 10.328125 -63.421875 L 17.03125 -63.421875 L 17.03125 0 L 10.328125 0 Z M 10.328125 -63.421875 "/></g></g></g><g fill="#041c30" fill-opacity="1"><g transform="translate(938.903036, 115.404177)"><g><path d="M 63.328125 -63.421875 L 63.328125 0 L 57.796875 0 L 17.03125 -51.453125 L 17.03125 0 L 10.328125 0 L 10.328125 -63.421875 L 15.859375 -63.421875 L 56.71875 -11.953125 L 56.71875 -63.421875 Z M 63.328125 -63.421875 "/></g></g></g><g fill="#041c30" fill-opacity="1"><g transform="translate(1012.54898, 115.404177)"><g><path d="M 54.984375 -31.703125 L 61.421875 -31.703125 L 61.421875 -7.515625 C 58.460938 -4.921875 54.957031 -2.925781 50.90625 -1.53125 C 46.863281 -0.144531 42.609375 0.546875 38.140625 0.546875 C 31.796875 0.546875 26.085938 -0.84375 21.015625 -3.625 C 15.941406 -6.40625 11.953125 -10.253906 9.046875 -15.171875 C 6.148438 -20.097656 4.703125 -25.609375 4.703125 -31.703125 C 4.703125 -37.804688 6.148438 -43.316406 9.046875 -48.234375 C 11.953125 -53.160156 15.941406 -57.007812 21.015625 -59.78125 C 26.085938 -62.5625 31.828125 -63.953125 38.234375 -63.953125 C 43.066406 -63.953125 47.503906 -63.179688 51.546875 -61.640625 C 55.597656 -60.109375 59.007812 -57.832031 61.78125 -54.8125 L 57.625 -50.546875 C 52.601562 -55.503906 46.226562 -57.984375 38.5 -57.984375 C 33.363281 -57.984375 28.726562 -56.847656 24.59375 -54.578125 C 20.457031 -52.316406 17.210938 -49.175781 14.859375 -45.15625 C 12.503906 -41.144531 11.328125 -36.660156 11.328125 -31.703125 C 11.328125 -26.753906 12.503906 -22.285156 14.859375 -18.296875 C 17.210938 -14.316406 20.441406 -11.175781 24.546875 -8.875 C 28.660156 -6.582031 33.28125 -5.4375 38.40625 -5.4375 C 44.9375 -5.4375 50.460938 -7.066406 54.984375 -10.328125 Z M 54.984375 -31.703125 "/></g></g></g><g fill="#041c30" fill-opacity="1"><g transform="translate(1082.571523, 115.404177)"><g/></g></g><g fill="#041c30" fill-opacity="1"><g transform="translate(1106.304902, 115.404177)"><g><path d="M 50.09375 -16.9375 L 14.765625 -16.9375 L 7.15625 0 L 0.1875 0 L 29.171875 -63.421875 L 35.78125 -63.421875 L 64.78125 0 L 57.703125 0 Z M 47.65625 -22.375 L 32.4375 -56.4375 L 17.21875 -22.375 Z M 47.65625 -22.375 "/></g></g></g><g fill="#041c30" fill-opacity="1"><g transform="translate(1171.254674, 115.404177)"><g><path d="M 63.328125 -63.421875 L 63.328125 0 L 57.796875 0 L 17.03125 -51.453125 L 17.03125 0 L 10.328125 0 L 10.328125 -63.421875 L 15.859375 -63.421875 L 56.71875 -11.953125 L 56.71875 -63.421875 Z M 63.328125 -63.421875 "/></g></g></g><g fill="#041c30" fill-opacity="1"><g transform="translate(1244.900618, 115.404177)"><g><path d="M 10.328125 -63.421875 L 36.140625 -63.421875 C 42.847656 -63.421875 48.769531 -62.078125 53.90625 -59.390625 C 59.039062 -56.703125 63.023438 -52.957031 65.859375 -48.15625 C 68.703125 -43.351562 70.125 -37.867188 70.125 -31.703125 C 70.125 -25.546875 68.703125 -20.066406 65.859375 -15.265625 C 63.023438 -10.460938 59.039062 -6.71875 53.90625 -4.03125 C 48.769531 -1.34375 42.847656 0 36.140625 0 L 10.328125 0 Z M 35.78125 -5.796875 C 41.34375 -5.796875 46.207031 -6.894531 50.375 -9.09375 C 54.539062 -11.300781 57.769531 -14.351562 60.0625 -18.25 C 62.351562 -22.144531 63.5 -26.628906 63.5 -31.703125 C 63.5 -36.773438 62.351562 -41.257812 60.0625 -45.15625 C 57.769531 -49.050781 54.539062 -52.101562 50.375 -54.3125 C 46.207031 -56.519531 41.34375 -57.625 35.78125 -57.625 L 17.03125 -57.625 L 17.03125 -5.796875 Z M 35.78125 -5.796875 "/></g></g></g><g fill="#041c30" fill-opacity="1"><g transform="translate(533.895836, 242.006094)"><g><path d="M 22.65625 -57.625 L 0.359375 -57.625 L 0.359375 -63.421875 L 51.640625 -63.421875 L 51.640625 -57.625 L 29.359375 -57.625 L 29.359375 0 L 22.65625 0 Z M 22.65625 -57.625 "/></g></g></g><g fill="#041c30" fill-opacity="1"><g transform="translate(585.89188, 242.006094)"><g><path d="M 55.171875 -5.796875 L 55.171875 0 L 10.328125 0 L 10.328125 -63.421875 L 53.8125 -63.421875 L 53.8125 -57.625 L 17.03125 -57.625 L 17.03125 -35.0625 L 49.828125 -35.0625 L 49.828125 -29.359375 L 17.03125 -29.359375 L 17.03125 -5.796875 Z M 55.171875 -5.796875 "/></g></g></g><g fill="#041c30" fill-opacity="1"><g transform="translate(646.131165, 242.006094)"><g><path d="M 37.875 0.546875 C 31.59375 0.546875 25.925781 -0.84375 20.875 -3.625 C 15.832031 -6.40625 11.875 -10.253906 9 -15.171875 C 6.132812 -20.097656 4.703125 -25.609375 4.703125 -31.703125 C 4.703125 -37.804688 6.132812 -43.316406 9 -48.234375 C 11.875 -53.160156 15.847656 -57.007812 20.921875 -59.78125 C 25.992188 -62.5625 31.671875 -63.953125 37.953125 -63.953125 C 42.671875 -63.953125 47.019531 -63.164062 51 -61.59375 C 54.988281 -60.03125 58.375 -57.738281 61.15625 -54.71875 L 56.890625 -50.453125 C 51.941406 -55.472656 45.691406 -57.984375 38.140625 -57.984375 C 33.128906 -57.984375 28.566406 -56.832031 24.453125 -54.53125 C 20.347656 -52.238281 17.132812 -49.097656 14.8125 -45.109375 C 12.488281 -41.128906 11.328125 -36.660156 11.328125 -31.703125 C 11.328125 -26.753906 12.488281 -22.285156 14.8125 -18.296875 C 17.132812 -14.316406 20.347656 -11.175781 24.453125 -8.875 C 28.566406 -6.582031 33.128906 -5.4375 38.140625 -5.4375 C 45.753906 -5.4375 52.003906 -7.972656 56.890625 -13.046875 L 61.15625 -8.78125 C 58.375 -5.769531 54.972656 -3.460938 50.953125 -1.859375 C 46.941406 -0.253906 42.582031 0.546875 37.875 0.546875 Z M 37.875 0.546875 "/></g></g></g><g fill="#041c30" fill-opacity="1"><g transform="translate(711.26209, 242.006094)"><g><path d="M 63.328125 -63.421875 L 63.328125 0 L 56.71875 0 L 56.71875 -29.265625 L 17.03125 -29.265625 L 17.03125 0 L 10.328125 0 L 10.328125 -63.421875 L 17.03125 -63.421875 L 17.03125 -35.15625 L 56.71875 -35.15625 L 56.71875 -63.421875 Z M 63.328125 -63.421875 "/></g></g></g><g fill="#041c30" fill-opacity="1"><g transform="translate(784.908034, 242.006094)"><g><path d="M 63.328125 -63.421875 L 63.328125 0 L 57.796875 0 L 17.03125 -51.453125 L 17.03125 0 L 10.328125 0 L 10.328125 -63.421875 L 15.859375 -63.421875 L 56.71875 -11.953125 L 56.71875 -63.421875 Z M 63.328125 -63.421875 "/></g></g></g><g fill="#041c30" fill-opacity="1"><g transform="translate(858.554002, 242.006094)"><g><path d="M 38.046875 0.546875 C 31.765625 0.546875 26.070312 -0.851562 20.96875 -3.65625 C 15.863281 -6.46875 11.875 -10.320312 9 -15.21875 C 6.132812 -20.113281 4.703125 -25.609375 4.703125 -31.703125 C 4.703125 -37.804688 6.132812 -43.300781 9 -48.1875 C 11.875 -53.082031 15.863281 -56.929688 20.96875 -59.734375 C 26.070312 -62.546875 31.765625 -63.953125 38.046875 -63.953125 C 44.328125 -63.953125 49.988281 -62.5625 55.03125 -59.78125 C 60.070312 -57.007812 64.039062 -53.160156 66.9375 -48.234375 C 69.84375 -43.316406 71.296875 -37.804688 71.296875 -31.703125 C 71.296875 -25.609375 69.84375 -20.097656 66.9375 -15.171875 C 64.039062 -10.253906 60.070312 -6.40625 55.03125 -3.625 C 49.988281 -0.84375 44.328125 0.546875 38.046875 0.546875 Z M 38.046875 -5.4375 C 43.054688 -5.4375 47.582031 -6.566406 51.625 -8.828125 C 55.675781 -11.097656 58.847656 -14.238281 61.140625 -18.25 C 63.441406 -22.269531 64.59375 -26.753906 64.59375 -31.703125 C 64.59375 -36.660156 63.441406 -41.144531 61.140625 -45.15625 C 58.847656 -49.175781 55.675781 -52.316406 51.625 -54.578125 C 47.582031 -56.847656 43.054688 -57.984375 38.046875 -57.984375 C 33.035156 -57.984375 28.488281 -56.847656 24.40625 -54.578125 C 20.332031 -52.316406 17.132812 -49.175781 14.8125 -45.15625 C 12.488281 -41.144531 11.328125 -36.660156 11.328125 -31.703125 C 11.328125 -26.753906 12.488281 -22.269531 14.8125 -18.25 C 17.132812 -14.238281 20.332031 -11.097656 24.40625 -8.828125 C 28.488281 -6.566406 33.035156 -5.4375 38.046875 -5.4375 Z M 38.046875 -5.4375 "/></g></g></g><g fill="#041c30" fill-opacity="1"><g transform="translate(934.555155, 242.006094)"><g><path d="M 10.328125 -63.421875 L 17.03125 -63.421875 L 17.03125 -5.796875 L 52.546875 -5.796875 L 52.546875 0 L 10.328125 0 Z M 10.328125 -63.421875 "/></g></g></g><g fill="#041c30" fill-opacity="1"><g transform="translate(986.641707, 242.006094)"><g><path d="M 38.046875 0.546875 C 31.765625 0.546875 26.070312 -0.851562 20.96875 -3.65625 C 15.863281 -6.46875 11.875 -10.320312 9 -15.21875 C 6.132812 -20.113281 4.703125 -25.609375 4.703125 -31.703125 C 4.703125 -37.804688 6.132812 -43.300781 9 -48.1875 C 11.875 -53.082031 15.863281 -56.929688 20.96875 -59.734375 C 26.070312 -62.546875 31.765625 -63.953125 38.046875 -63.953125 C 44.328125 -63.953125 49.988281 -62.5625 55.03125 -59.78125 C 60.070312 -57.007812 64.039062 -53.160156 66.9375 -48.234375 C 69.84375 -43.316406 71.296875 -37.804688 71.296875 -31.703125 C 71.296875 -25.609375 69.84375 -20.097656 66.9375 -15.171875 C 64.039062 -10.253906 60.070312 -6.40625 55.03125 -3.625 C 49.988281 -0.84375 44.328125 0.546875 38.046875 0.546875 Z M 38.046875 -5.4375 C 43.054688 -5.4375 47.582031 -6.566406 51.625 -8.828125 C 55.675781 -11.097656 58.847656 -14.238281 61.140625 -18.25 C 63.441406 -22.269531 64.59375 -26.753906 64.59375 -31.703125 C 64.59375 -36.660156 63.441406 -41.144531 61.140625 -45.15625 C 58.847656 -49.175781 55.675781 -52.316406 51.625 -54.578125 C 47.582031 -56.847656 43.054688 -57.984375 38.046875 -57.984375 C 33.035156 -57.984375 28.488281 -56.847656 24.40625 -54.578125 C 20.332031 -52.316406 17.132812 -49.175781 14.8125 -45.15625 C 12.488281 -41.144531 11.328125 -36.660156 11.328125 -31.703125 C 11.328125 -26.753906 12.488281 -22.269531 14.8125 -18.25 C 17.132812 -14.238281 20.332031 -11.097656 24.40625 -8.828125 C 28.488281 -6.566406 33.035156 -5.4375 38.046875 -5.4375 Z M 38.046875 -5.4375 "/></g></g></g><g fill="#041c30" fill-opacity="1"><g transform="translate(1062.642883, 242.006094)"><g><path d="M 54.984375 -31.703125 L 61.421875 -31.703125 L 61.421875 -7.515625 C 58.460938 -4.921875 54.957031 -2.925781 50.90625 -1.53125 C 46.863281 -0.144531 42.609375 0.546875 38.140625 0.546875 C 31.796875 0.546875 26.085938 -0.84375 21.015625 -3.625 C 15.941406 -6.40625 11.953125 -10.253906 9.046875 -15.171875 C 6.148438 -20.097656 4.703125 -25.609375 4.703125 -31.703125 C 4.703125 -37.804688 6.148438 -43.316406 9.046875 -48.234375 C 11.953125 -53.160156 15.941406 -57.007812 21.015625 -59.78125 C 26.085938 -62.5625 31.828125 -63.953125 38.234375 -63.953125 C 43.066406 -63.953125 47.503906 -63.179688 51.546875 -61.640625 C 55.597656 -60.109375 59.007812 -57.832031 61.78125 -54.8125 L 57.625 -50.546875 C 52.601562 -55.503906 46.226562 -57.984375 38.5 -57.984375 C 33.363281 -57.984375 28.726562 -56.847656 24.59375 -54.578125 C 20.457031 -52.316406 17.210938 -49.175781 14.859375 -45.15625 C 12.503906 -41.144531 11.328125 -36.660156 11.328125 -31.703125 C 11.328125 -26.753906 12.503906 -22.285156 14.859375 -18.296875 C 17.210938 -14.316406 20.441406 -11.175781 24.546875 -8.875 C 28.660156 -6.582031 33.28125 -5.4375 38.40625 -5.4375 C 44.9375 -5.4375 50.460938 -7.066406 54.984375 -10.328125 Z M 54.984375 -31.703125 "/></g></g></g><g fill="#041c30" fill-opacity="1"><g transform="translate(1132.665426, 242.006094)"><g><path d="M 32.0625 -21.921875 L 32.0625 0 L 25.453125 0 L 25.453125 -21.921875 L 0.09375 -63.421875 L 7.25 -63.421875 L 28.984375 -27.8125 L 50.734375 -63.421875 L 57.4375 -63.421875 Z M 32.0625 -21.921875 "/></g></g></g><g fill="#041c30" fill-opacity="1"><g transform="translate(533.895836, 368.608011)"><g><path d="M 10.328125 -63.421875 L 17.03125 -63.421875 L 17.03125 0 L 10.328125 0 Z M 10.328125 -63.421875 "/></g></g></g><g fill="#041c30" fill-opacity="1"><g transform="translate(561.252639, 368.608011)"><g><path d="M 63.328125 -63.421875 L 63.328125 0 L 57.796875 0 L 17.03125 -51.453125 L 17.03125 0 L 10.328125 0 L 10.328125 -63.421875 L 15.859375 -63.421875 L 56.71875 -11.953125 L 56.71875 -63.421875 Z M 63.328125 -63.421875 "/></g></g></g><g fill="#041c30" fill-opacity="1"><g transform="translate(634.898595, 368.608011)"><g><path d="M 27.8125 0.546875 C 23.101562 0.546875 18.585938 -0.207031 14.265625 -1.71875 C 9.953125 -3.226562 6.617188 -5.222656 4.265625 -7.703125 L 6.890625 -12.859375 C 9.179688 -10.566406 12.226562 -8.707031 16.03125 -7.28125 C 19.84375 -5.863281 23.769531 -5.15625 27.8125 -5.15625 C 33.488281 -5.15625 37.742188 -6.195312 40.578125 -8.28125 C 43.421875 -10.375 44.84375 -13.078125 44.84375 -16.390625 C 44.84375 -18.929688 44.070312 -20.957031 42.53125 -22.46875 C 40.988281 -23.976562 39.097656 -25.140625 36.859375 -25.953125 C 34.628906 -26.765625 31.523438 -27.65625 27.546875 -28.625 C 22.773438 -29.832031 18.96875 -30.992188 16.125 -32.109375 C 13.289062 -33.234375 10.859375 -34.941406 8.828125 -37.234375 C 6.804688 -39.523438 5.796875 -42.632812 5.796875 -46.5625 C 5.796875 -49.757812 6.640625 -52.671875 8.328125 -55.296875 C 10.023438 -57.929688 12.625 -60.03125 16.125 -61.59375 C 19.625 -63.164062 23.972656 -63.953125 29.171875 -63.953125 C 32.796875 -63.953125 36.34375 -63.453125 39.8125 -62.453125 C 43.289062 -61.460938 46.296875 -60.09375 48.828125 -58.34375 L 46.5625 -53 C 43.90625 -54.75 41.066406 -56.0625 38.046875 -56.9375 C 35.023438 -57.8125 32.066406 -58.25 29.171875 -58.25 C 23.617188 -58.25 19.4375 -57.175781 16.625 -55.03125 C 13.8125 -52.882812 12.40625 -50.125 12.40625 -46.75 C 12.40625 -44.207031 13.175781 -42.164062 14.71875 -40.625 C 16.257812 -39.09375 18.191406 -37.914062 20.515625 -37.09375 C 22.835938 -36.28125 25.960938 -35.390625 29.890625 -34.421875 C 34.546875 -33.273438 38.304688 -32.144531 41.171875 -31.03125 C 44.046875 -29.914062 46.476562 -28.222656 48.46875 -25.953125 C 50.457031 -23.691406 51.453125 -20.628906 51.453125 -16.765625 C 51.453125 -13.554688 50.59375 -10.640625 48.875 -8.015625 C 47.15625 -5.390625 44.515625 -3.304688 40.953125 -1.765625 C 37.390625 -0.222656 33.007812 0.546875 27.8125 0.546875 Z M 27.8125 0.546875 "/></g></g></g><g fill="#041c30" fill-opacity="1"><g transform="translate(689.702722, 368.608011)"><g><path d="M 22.65625 -57.625 L 0.359375 -57.625 L 0.359375 -63.421875 L 51.640625 -63.421875 L 51.640625 -57.625 L 29.359375 -57.625 L 29.359375 0 L 22.65625 0 Z M 22.65625 -57.625 "/></g></g></g><g fill="#041c30" fill-opacity="1"><g transform="translate(741.698765, 368.608011)"><g><path d="M 10.328125 -63.421875 L 17.03125 -63.421875 L 17.03125 0 L 10.328125 0 Z M 10.328125 -63.421875 "/></g></g></g><g fill="#041c30" fill-opacity="1"><g transform="translate(769.055568, 368.608011)"><g><path d="M 22.65625 -57.625 L 0.359375 -57.625 L 0.359375 -63.421875 L 51.640625 -63.421875 L 51.640625 -57.625 L 29.359375 -57.625 L 29.359375 0 L 22.65625 0 Z M 22.65625 -57.625 "/></g></g></g><g fill="#041c30" fill-opacity="1"><g transform="translate(819.783327, 368.608011)"><g><path d="M 35.875 0.546875 C 27.65625 0.546875 21.25 -1.804688 16.65625 -6.515625 C 12.070312 -11.234375 9.78125 -18.09375 9.78125 -27.09375 L 9.78125 -63.421875 L 16.484375 -63.421875 L 16.484375 -27.359375 C 16.484375 -19.992188 18.144531 -14.5 21.46875 -10.875 C 24.789062 -7.25 29.59375 -5.4375 35.875 -5.4375 C 42.21875 -5.4375 47.050781 -7.25 50.375 -10.875 C 53.695312 -14.5 55.359375 -19.992188 55.359375 -27.359375 L 55.359375 -63.421875 L 61.875 -63.421875 L 61.875 -27.09375 C 61.875 -18.09375 59.59375 -11.234375 55.03125 -6.515625 C 50.476562 -1.804688 44.09375 0.546875 35.875 0.546875 Z M 35.875 0.546875 "/></g></g></g><g fill="#041c30" fill-opacity="1"><g transform="translate(890.258709, 368.608011)"><g><path d="M 22.65625 -57.625 L 0.359375 -57.625 L 0.359375 -63.421875 L 51.640625 -63.421875 L 51.640625 -57.625 L 29.359375 -57.625 L 29.359375 0 L 22.65625 0 Z M 22.65625 -57.625 "/></g></g></g><g fill="#041c30" fill-opacity="1"><g transform="translate(942.254752, 368.608011)"><g><path d="M 55.171875 -5.796875 L 55.171875 0 L 10.328125 0 L 10.328125 -63.421875 L 53.8125 -63.421875 L 53.8125 -57.625 L 17.03125 -57.625 L 17.03125 -35.0625 L 49.828125 -35.0625 L 49.828125 -29.359375 L 17.03125 -29.359375 L 17.03125 -5.796875 Z M 55.171875 -5.796875 "/></g></g></g></svg>